<svg id="Capa_1" enable-background="new 0 0 510 510" height="512" viewBox="0 0 510 510" width="512" xmlns="http://www.w3.org/2000/svg" xmlns:xlink="http://www.w3.org/1999/xlink"><linearGradient id="lg1"><stop offset="0" stop-color="#537983"/><stop offset=".593" stop-color="#554e56"/><stop offset="1" stop-color="#433f43"/></linearGradient><linearGradient id="SVGID_1_" gradientUnits="userSpaceOnUse" x1="184.029" x2="325.971" xlink:href="#lg1" y1="70.465" y2="70.465"/><linearGradient id="SVGID_2_" gradientUnits="userSpaceOnUse" x1="152" x2="304.072" xlink:href="#lg1" y1="70.464" y2="70.464"/><linearGradient id="lg2"><stop offset="0" stop-color="#fe646f"/><stop offset=".593" stop-color="#fb2b3a"/><stop offset="1" stop-color="#c41926"/></linearGradient><linearGradient id="SVGID_3_" gradientUnits="userSpaceOnUse" x1="67.126" x2="574.103" xlink:href="#lg2" y1="167.903" y2="167.903"/><linearGradient id="SVGID_4_" gradientUnits="userSpaceOnUse" x1="55" x2="450.991" xlink:href="#lg2" y1="167.903" y2="167.903"/><linearGradient id="SVGID_5_" gradientUnits="userSpaceOnUse" x1="0" x2="201.155" xlink:href="#lg2" y1="376.507" y2="376.507"/><linearGradient id="SVGID_6_" gradientUnits="userSpaceOnUse" x1="-30.667" x2="125.489" xlink:href="#lg2" y1="376.51" y2="376.51"/><linearGradient id="SVGID_7_" gradientUnits="userSpaceOnUse" x1="109.687" x2="246.095" xlink:href="#lg1" y1="376.507" y2="376.507"/><linearGradient id="SVGID_8_" gradientUnits="userSpaceOnUse" x1="372.038" x2="565.813" xlink:href="#lg2" y1="376.507" y2="376.507"/><linearGradient id="SVGID_9_" gradientUnits="userSpaceOnUse" x1="338.193" x2="497.104" xlink:href="#lg2" y1="376.507" y2="376.507"/><linearGradient id="SVGID_10_" gradientUnits="userSpaceOnUse" x1="316.441" x2="452.848" xlink:href="#lg1" y1="376.507" y2="376.507"/><linearGradient id="SVGID_11_" gradientUnits="userSpaceOnUse" x1="265.333" x2="454.17" xlink:href="#lg1" y1="376.507" y2="376.507"/><linearGradient id="SVGID_12_" gradientUnits="userSpaceOnUse" x1="58.581" x2="247.417" xlink:href="#lg1" y1="376.507" y2="376.507"/><g><g><path d="m255 96.717c13.525 0 26.763 1.07 39.555 3.169 16.02 2.629 31.416-5.69 31.416-17.141v-20.736c0-8.283-8.246-15.421-19.836-17.316-16.677-2.728-33.84-4.136-51.134-4.136s-34.457 1.409-51.134 4.136c-11.59 1.896-19.836 9.033-19.836 17.316v20.736c0 11.451 15.396 19.77 31.416 17.141 12.79-2.099 26.028-3.169 39.553-3.169z" fill="url(#SVGID_1_)"/><path d="m325.97 62.011v20.732c0 11.451-15.4 19.772-31.42 17.142-6.58-1.078-13.27-1.885-20.06-2.414 6.83-3.11 11.46-8.446 11.46-14.728v-20.732c0-8.286-8.25-15.424-19.84-17.316-10.21-1.67-20.62-2.845-31.12-3.506 6.64-.417 13.32-.633 20.01-.633 17.29 0 34.46 1.412 51.13 4.139 11.59 1.892 19.84 9.03 19.84 17.316z" fill="url(#SVGID_2_)"/></g><path d="m45.066 209.934v125.871h67.987v-126.393c0-78.395 63.552-141.947 141.947-141.947 78.395 0 141.947 63.552 141.947 141.947v126.394h67.987v-125.872c0-115.943-93.99-209.934-209.934-209.934-115.944 0-209.934 93.991-209.934 209.934z" fill="url(#SVGID_3_)"/><path d="m255 0c-6.751 0-13.423.332-20.01.955 106.556 10.077 189.924 99.786 189.924 208.979v125.871h40.02v-125.871c0-115.943-93.99-209.934-209.934-209.934z" fill="url(#SVGID_4_)"/><g><path d="m153.038 489.665h-67.555c-47.211 0-85.483-38.272-85.483-85.483v-55.351c0-47.211 38.272-85.483 85.483-85.483h67.555z" fill="url(#SVGID_5_)"/><path d="m153.04 263.35v226.32h-67.56c-.27 0-.53 0-.8-.01v-226.3c.27-.01.53-.01.8-.01z" fill="url(#SVGID_6_)"/><path d="m162.659 510h-22.071c-17.066 0-30.901-13.835-30.901-30.901v-205.185c0-17.066 13.835-30.901 30.901-30.901h22.071c17.066 0 30.901 13.835 30.901 30.901v205.185c0 17.066-13.835 30.901-30.901 30.901z" fill="url(#SVGID_7_)"/></g><g><path d="m356.962 489.665h67.555c47.211 0 85.483-38.272 85.483-85.483v-55.351c0-47.211-38.272-85.483-85.483-85.483h-67.555z" fill="url(#SVGID_8_)"/><path d="m424.517 263.348h-40.02c47.211 0 85.483 38.272 85.483 85.483v55.351c0 47.211-38.272 85.483-85.483 85.483h40.02c47.211 0 85.483-38.272 85.483-85.483v-55.351c0-47.211-38.272-85.483-85.483-85.483z" fill="url(#SVGID_9_)"/><path d="m369.412 510h-22.071c-17.066 0-30.901-13.835-30.901-30.901v-205.185c0-17.066 13.835-30.901 30.901-30.901h22.071c17.066 0 30.901 13.835 30.901 30.901v205.185c0 17.066-13.835 30.901-30.901 30.901z" fill="url(#SVGID_10_)"/></g><path d="m369.412 243.013h-22.071c-3.122 0-6.134.467-8.974 1.328 12.688 3.846 21.926 15.628 21.926 29.573v205.185c0 13.944-9.238 25.727-21.926 29.572 2.841.861 5.853 1.328 8.974 1.328h22.071c17.066 0 30.901-13.835 30.901-30.901v-205.184c0-17.066-13.835-30.901-30.901-30.901z" fill="url(#SVGID_11_)"/><path d="m162.659 243.013h-22.071c-3.122 0-6.134.467-8.974 1.328 12.688 3.846 21.926 15.628 21.926 29.573v205.185c0 13.944-9.238 25.727-21.926 29.572 2.841.861 5.853 1.328 8.974 1.328h22.071c17.066 0 30.901-13.835 30.901-30.901v-205.184c0-17.066-13.835-30.901-30.901-30.901z" fill="url(#SVGID_12_)"/></g></svg>